<svg xmlns="http://www.w3.org/2000/svg" viewBox="0 0 64 64"><g id="Layer_5" data-name="Layer 5"><path d="M61,18.38V8.24A5.25,5.25,0,0,0,55.76,3H25.14a5.24,5.24,0,0,0-4.83,3.23H15.18a1,1,0,0,0-1,1V8.31l-4,1.64c-.9.31-.57,1.66-.62,2.36H4a1,1,0,0,0,0,2H9.52c.05.7-.27,2.06.62,2.36l4,1.64V19.4a1,1,0,0,0,1,1h5.13a5.24,5.24,0,0,0,4.83,3.22h7.75c1.58.71,1.54,5.85-.07,6.41a1.16,1.16,0,0,0-.51.36A1,1,0,0,0,33.09,32h7.32l2.81,13.38H31.94a3.81,3.81,0,0,0-3.81,3.81v8A3.81,3.81,0,0,0,31.94,61H57.19A3.82,3.82,0,0,0,61,57.19v-8a3.82,3.82,0,0,0-3.94-3.81L52.48,23.62h3.28A5.25,5.25,0,0,0,61,18.38ZM11.52,15.07V11.55l2.66-1.08v5.68Zm8.39,3.33H16.18V8.23h3.73Zm2,0V8.24A3.24,3.24,0,0,1,25.14,5H55.76A3.24,3.24,0,0,1,59,8.24V18.38a3.24,3.24,0,0,1-3.24,3.24H25.14A3.24,3.24,0,0,1,21.91,18.38ZM35.41,30a8,8,0,0,0,0-6.38h3.23L40,30ZM59,49.19v8A1.81,1.81,0,0,1,57.19,59H54.5V54a1,1,0,0,0-2,0v5H50V54a1,1,0,0,0-2,0v5H45.5V54a1,1,0,0,0-2,0v5H41V54a1,1,0,0,0-2,0v5H36.5V54a1,1,0,0,0-2,0v5H31.94a1.81,1.81,0,0,1-1.81-1.81v-8a1.81,1.81,0,0,1,1.81-1.81c6.06,0,18.26,0,24.31,0h.94A1.81,1.81,0,0,1,59,49.19Zm-4-3.81H45.26L40.69,23.62h9.75Z"/><path d="M34.18,17.27a1,1,0,0,0,.71-.29l6.58-6.58A1,1,0,0,0,40.05,9l-6.58,6.58A1,1,0,0,0,34.18,17.27Z"/><path d="M38.64,17a1,1,0,0,0,1.41,0l6.58-6.58A1,1,0,0,0,45.22,9l-6.58,6.58A1,1,0,0,0,38.64,17Z"/><path d="M43.8,17a1,1,0,0,0,1.41,0l6.58-6.58A1,1,0,0,0,50.38,9L43.8,15.57A1,1,0,0,0,43.8,17Z"/><path d="M49,17a1,1,0,0,0,1.42,0L57,10.4A1,1,0,0,0,57,9a1,1,0,0,0-1.42,0L49,15.57A1,1,0,0,0,49,17Z"/></g></svg>